<?xml version="1.0" standalone="no"?>
<!DOCTYPE svg PUBLIC "-//W3C//DTD SVG 20010904//EN"
 "http://www.w3.org/TR/2001/REC-SVG-20010904/DTD/svg10.dtd">
<svg version="1.0" xmlns="http://www.w3.org/2000/svg"
 width="360.000000pt" height="360.000000pt" viewBox="0 0 360.000000 360.000000"
 preserveAspectRatio="xMidYMid meet">

<g transform="translate(0.000000,360.000000) scale(0.100000,-0.100000)"
fill="#000000" stroke="none">
<path d="M1685 3593 c-118 -10 -222 -27 -325 -53 -313 -79 -568 -223 -809
-455 -189 -182 -345 -418 -434 -656 -142 -379 -150 -813 -22 -1197 217 -650
790 -1126 1465 -1217 188 -26 429 -18 616 21 206 42 486 165 664 291 123 88
346 311 432 433 161 228 274 510 313 781 17 122 20 345 5 469 -84 695 -567
1280 -1238 1500 -211 69 -463 101 -667 83z m-365 -1038 l0 -95 -160 0 -160 0
0 95 0 95 160 0 160 0 0 -95z m1290 0 l0 -95 -165 0 -165 0 0 95 0 95 165 0
165 0 0 -95z m258 -292 l3 -133 -1066 0 -1065 0 0 135 0 135 1063 -2 1062 -3
3 -132z m-78 -752 c0 -304 -3 -557 -6 -562 -9 -15 -1947 -12 -1962 3 -9 9 -12
148 -12 565 l0 553 990 -2 991 -3 -1 -554z"/>
<path d="M1676 1941 c-12 -19 -156 -447 -156 -464 0 -23 38 -37 99 -37 27 0
63 -3 81 -6 l32 -7 -2 -131 c-3 -165 -4 -156 23 -156 19 0 51 41 181 235 87
130 156 243 154 253 -3 14 -18 17 -96 20 -50 1 -92 4 -92 5 0 1 23 62 50 136
38 102 47 137 39 148 -9 10 -48 13 -160 13 -81 0 -150 -4 -153 -9z"/>
</g>
</svg>
