<?xml version="1.0" standalone="no"?>
<!DOCTYPE svg PUBLIC "-//W3C//DTD SVG 20010904//EN"
 "http://www.w3.org/TR/2001/REC-SVG-20010904/DTD/svg10.dtd">
<svg version="1.0" xmlns="http://www.w3.org/2000/svg"
 width="360.000000pt" height="360.000000pt" viewBox="0 0 360.000000 360.000000"
 preserveAspectRatio="xMidYMid meet">

<g transform="translate(0.000000,360.000000) scale(0.100000,-0.100000)"
fill="#000000" stroke="none">
<path d="M1628 3590 c-818 -86 -1479 -712 -1605 -1522 -26 -166 -23 -405 6
-573 122 -702 657 -1277 1344 -1444 177 -43 291 -54 490 -48 281 8 505 65 752
191 219 112 395 252 575 456 63 73 173 247 235 373 114 234 164 440 172 714 6
181 -4 299 -38 453 -152 698 -739 1258 -1449 1380 -143 24 -354 33 -482 20z
m736 -776 c22 -9 23 -139 1 -148 -35 -13 -45 4 -45 73 0 81 5 90 44 75z m-209
-109 c32 -54 30 -90 -4 -90 -18 0 -30 12 -52 53 -31 58 -29 82 7 82 17 0 30
-12 49 -45z m463 19 c5 -33 -48 -114 -74 -114 -42 0 -37 40 14 118 19 29 56
26 60 -4z m-130 -144 c106 -53 162 -138 170 -256 8 -120 -44 -228 -136 -284
-23 -14 -42 -29 -42 -35 0 -5 43 -147 96 -315 124 -393 126 -401 112 -417 -8
-10 -105 -13 -474 -13 l-464 0 0 -145 0 -145 193 0 192 -1 145 -68 c128 -60
145 -70 145 -92 l0 -24 -705 0 -705 0 -3 23 c-3 20 12 30 135 90 l138 67 197
3 196 3 4 137 c2 75 2 140 0 145 -2 4 -209 7 -461 7 -400 0 -460 2 -471 15
-11 13 -3 48 45 203 31 103 65 212 75 242 10 30 37 116 60 190 23 74 45 146
50 160 5 14 25 78 45 143 l36 117 474 1 c261 1 480 2 486 3 6 0 20 29 31 64
45 135 150 210 299 211 65 1 84 -3 137 -29z m-490 -38 c45 -26 55 -54 24 -71
-13 -7 -31 -2 -70 21 -52 29 -64 52 -41 75 13 13 28 9 87 -25z m790 26 c23
-23 12 -46 -35 -73 -54 -30 -87 -30 -91 1 -2 17 9 29 50 53 61 35 60 35 76 19z
m76 -254 c12 -31 -13 -44 -81 -44 -66 0 -82 11 -69 45 8 23 141 21 150 -1z
m-116 -205 c42 -24 53 -35 50 -52 -4 -32 -40 -33 -93 -2 -55 33 -63 77 -15 84
3 0 29 -13 58 -30z m-153 -166 c30 -54 30 -87 -1 -91 -17 -2 -28 9 -53 52 -33
60 -32 86 4 86 17 0 30 -12 50 -47z"/>
<path d="M2281 2538 c-79 -22 -171 -123 -171 -187 0 -20 6 -21 133 -23 l132
-3 39 -122 c22 -68 43 -123 48 -123 20 0 93 79 111 120 85 189 -94 395 -292
338z"/>
<path d="M1092 2202 c-12 -38 -22 -71 -22 -75 0 -4 42 -7 94 -7 l94 0 11 63
c6 35 11 69 11 75 0 8 -26 12 -83 12 l-83 0 -22 -68z"/>
<path d="M1355 2258 c-8 -24 -25 -103 -25 -120 0 -16 11 -18 100 -18 l100 0 0
38 c0 20 3 54 6 75 l7 37 -92 0 c-64 0 -93 -4 -96 -12z"/>
<path d="M1607 2263 c-4 -3 -7 -37 -7 -75 l0 -68 120 0 120 0 0 29 c0 15 -3
49 -6 75 l-7 46 -107 0 c-59 0 -110 -3 -113 -7z"/>
<path d="M1900 2233 c0 -21 3 -55 6 -75 l7 -38 98 0 c107 0 106 -1 90 60 -5
19 -12 47 -15 63 l-6 27 -90 0 -90 0 0 -37z"/>
<path d="M2153 2253 c3 -10 11 -44 18 -75 l12 -58 94 0 c85 0 94 2 89 18 -3 9
-14 42 -23 72 l-18 55 -88 3 c-81 3 -88 1 -84 -15z"/>
<path d="M1021 1978 c-11 -40 -21 -76 -21 -80 0 -5 47 -8 104 -8 l105 0 11 58
c6 31 14 67 17 80 5 22 4 22 -94 22 l-100 0 -22 -72z"/>
<path d="M1304 2023 c-3 -16 -10 -44 -15 -63 -18 -72 -21 -70 105 -70 l113 0
7 53 c3 28 6 64 6 80 l0 27 -105 0 -105 0 -6 -27z"/>
<path d="M1586 2004 c-3 -26 -6 -62 -6 -80 l0 -34 141 0 142 0 -7 38 c-3 20
-6 56 -6 80 l0 42 -129 0 -128 0 -7 -46z"/>
<path d="M1922 1973 c3 -43 7 -79 7 -80 1 -2 53 -3 117 -3 115 0 116 0 111 23
-3 12 -11 48 -18 80 l-12 57 -106 0 -107 0 8 -77z"/>
<path d="M2200 2033 c0 -10 4 -34 9 -53 5 -19 12 -47 15 -62 l6 -28 105 0 c58
0 105 4 105 8 0 4 -11 39 -23 78 l-24 69 -96 3 c-88 2 -97 1 -97 -15z"/>
<path d="M946 1737 c-14 -46 -26 -86 -26 -90 0 -4 53 -7 118 -7 l119 0 12 63
c6 34 14 74 18 90 l5 27 -110 0 -110 0 -26 -83z"/>
<path d="M1251 1770 c-6 -27 -14 -68 -17 -90 l-7 -40 130 0 130 0 7 38 c3 20
6 61 6 90 l0 52 -119 0 -119 0 -11 -50z"/>
<path d="M1570 1798 c0 -13 -3 -53 -7 -90 l-6 -68 161 0 160 0 -5 78 c-2 42
-6 83 -9 90 -2 9 -41 12 -149 12 -144 0 -145 0 -145 -22z"/>
<path d="M1937 1743 c2 -43 6 -84 9 -90 2 -10 38 -13 134 -13 71 0 130 3 130
8 0 4 -7 44 -16 90 l-17 82 -123 0 -122 0 5 -77z"/>
<path d="M2250 1803 c0 -10 7 -51 17 -90 l17 -73 119 0 c91 0 118 3 114 13 -2
6 -14 47 -27 90 l-23 77 -108 0 c-97 0 -109 -2 -109 -17z"/>
<path d="M860 1463 c-18 -60 -35 -114 -38 -120 -3 -10 27 -13 132 -13 75 0
136 2 136 3 0 2 11 55 25 117 14 62 25 115 25 117 0 1 -55 3 -123 3 l-123 0
-34 -107z"/>
<path d="M1206 1553 c-6 -21 -46 -210 -46 -218 0 -3 69 -5 154 -5 l153 0 6 83
c4 45 7 99 7 120 l0 37 -134 0 c-120 0 -135 -2 -140 -17z"/>
<path d="M1544 1450 l-9 -120 183 0 184 0 -7 113 c-4 61 -9 115 -12 120 -2 4
-78 7 -167 7 l-163 0 -9 -120z"/>
<path d="M1954 1523 c3 -27 8 -81 12 -120 l6 -73 155 0 c142 0 154 1 149 18
-6 20 -46 209 -46 217 0 3 -63 5 -141 5 l-141 0 6 -47z"/>
<path d="M2300 1558 c1 -7 11 -60 24 -118 l22 -105 137 -3 136 -3 -24 78 c-14
43 -31 96 -38 118 l-14 40 -121 3 c-94 2 -122 0 -122 -10z"/>
<path d="M1695 900 l-400 -5 -50 -27 -50 -27 518 -1 c284 0 517 2 517 5 0 7
-57 35 -99 48 -26 9 -147 11 -436 7z"/>
</g>
</svg>
